Coordinates
version=1
nRows=27
nColumns=38
inDegrees=no

Units are S.I. units (second, meters, Newtons, ...)
If the header above contains a line with 'inDegrees', this indicates whether rotational values are in degrees (yes) or radians (no).

endheader
time	pelvis_tilt	pelvis_list	pelvis_rotation	pelvis_tx	pelvis_ty	pelvis_tz	hip_flexion_r	hip_adduction_r	hip_rotation_r	knee_angle_r	ankle_angle_r	subtalar_angle_r	mtp_angle_r	hip_flexion_l	hip_adduction_l	hip_rotation_l	knee_angle_l	ankle_angle_l	subtalar_angle_l	mtp_angle_l	lumbar_extension	lumbar_bending	lumbar_rotation	arm_flex_r	arm_add_r	arm_rot_r	elbow_flex_r	pro_sup_r	wrist_flex_r	wrist_dev_r	arm_flex_l	arm_add_l	arm_rot_l	elbow_flex_l	pro_sup_l	wrist_flex_l	wrist_dev_l
0	3.01567	1.26552	-1.3423	0.687916	-0.184968	0.953134	-0.383124	0.0459676	0.0115697	0.154272	-0.260851	0	0	-0.372303	-0.109011	-0.109787	0.162408	-0.220004	0	0	-0.385855	0.153251	-0.076204	-0.00700843	-0.441538	0.387058	0.950881	1.5708	0	0	0.0852639	-0.279966	0.420242	0.7385	1.5708	0	0
0.01	3.0032	1.28551	-1.32991	0.687997	-0.183736	0.95259	-0.362264	0.0456567	0.0131892	0.153831	-0.262998	0	0	-0.352606	-0.107258	-0.101312	0.159301	-0.22365	0	0	-0.361561	0.146573	-0.0724578	0.00196687	-0.442857	0.416442	0.924497	1.5708	0	0	0.0948011	-0.278553	0.443155	0.717703	1.5708	0	0
0.02	3.00285	1.28568	-1.32964	0.688026	-0.183644	0.952559	-0.362138	0.0457943	0.0129274	0.153823	-0.262642	0	0	-0.352469	-0.107314	-0.101341	0.159562	-0.223463	0	0	-0.361117	0.146547	-0.0720687	0.00167967	-0.442932	0.41637	0.924287	1.5708	0	0	0.0954863	-0.278658	0.444513	0.716894	1.5708	0	0
0.03	3.00332	1.2856	-1.33016	0.688062	-0.183574	0.952546	-0.362288	0.0456879	0.012797	0.153955	-0.262549	0	0	-0.35261	-0.107152	-0.101291	0.159799	-0.223247	0	0	-0.361196	0.146298	-0.0719265	0.0014987	-0.442662	0.415783	0.924123	1.5708	0	0	0.0959497	-0.278701	0.444503	0.716545	1.5708	0	0
0.04	3.00351	1.28523	-1.33032	0.688112	-0.183524	0.952564	-0.36284	0.0456863	0.0130311	0.153785	-0.262603	0	0	-0.352902	-0.107047	-0.100974	0.160189	-0.222906	0	0	-0.361547	0.146241	-0.0718605	0.00144939	-0.442445	0.415313	0.923993	1.5708	0	0	0.0963239	-0.278741	0.444428	0.716297	1.5708	0	0
0.05	3.00305	1.28446	-1.32978	0.688186	-0.183521	0.952619	-0.363783	0.0460233	0.0134641	0.153433	-0.262783	0	0	-0.353477	-0.107092	-0.100212	0.160592	-0.222428	0	0	-0.362372	0.146464	-0.0716623	0.00152272	-0.442324	0.414893	0.923979	1.5708	0	0	0.0967792	-0.278966	0.44468	0.716386	1.5708	0	0
0.06	3.00048	1.28518	-1.32734	0.68823	-0.183333	0.952546	-0.363171	0.046556	0.0136471	0.153121	-0.262971	0	0	-0.35271	-0.107105	-0.0992737	0.160732	-0.221747	0	0	-0.361447	0.147069	-0.07179	0.00136984	-0.442379	0.414764	0.924035	1.5708	0	0	0.0962747	-0.278995	0.4442	0.71646	1.5708	0	0
0.07	2.99788	1.28632	-1.32478	0.68828	-0.18314	0.952431	-0.362119	0.047235	0.0140582	0.152946	-0.262974	0	0	-0.35158	-0.106765	-0.0971705	0.160618	-0.220559	0	0	-0.360002	0.147465	-0.0721529	0.00136142	-0.442169	0.414794	0.923619	1.5708	0	0	0.0956157	-0.279035	0.443568	0.716465	1.5708	0	0
0.08	2.99638	1.28702	-1.32337	0.688375	-0.182976	0.952355	-0.361593	0.047715	0.0145676	0.152729	-0.262779	0	0	-0.351212	-0.105855	-0.0940591	0.159915	-0.219398	0	0	-0.359128	0.14754	-0.0723898	0.00145063	-0.441948	0.414987	0.92317	1.5708	0	0	0.0951393	-0.279419	0.443673	0.716715	1.5708	0	0
0.09	2.99607	1.2874	-1.32323	0.688527	-0.182843	0.952357	-0.361372	0.0479837	0.0151242	0.152749	-0.262541	0	0	-0.351599	-0.104187	-0.0893706	0.158222	-0.218537	0	0	-0.35875	0.147388	-0.0725271	0.00158874	-0.441551	0.414947	0.922639	1.5708	0	0	0.0948728	-0.27996	0.443803	0.716839	1.5708	0	0
0.1	2.99841	1.28715	-1.32589	0.688745	-0.18277	0.952493	-0.361811	0.0474922	0.0157266	0.152782	-0.262551	0	0	-0.3528	-0.101551	-0.0838716	0.156393	-0.218182	0	0	-0.35951	0.146501	-0.0724632	0.00189197	-0.440901	0.414757	0.922039	1.5708	0	0	0.0949762	-0.28035	0.443421	0.716714	1.5708	0	0
0.11	3.00397	1.28582	-1.33204	0.689	-0.18278	0.952789	-0.363521	0.0463041	0.016366	0.152818	-0.26265	0	0	-0.354837	-0.0983791	-0.079798	0.155711	-0.21835	0	0	-0.362018	0.144735	-0.0721069	0.00256276	-0.439927	0.414369	0.921196	1.5708	0	0	0.095526	-0.280798	0.442897	0.716692	1.5708	0	0
0.12	3.01214	1.28321	-1.34082	0.689239	-0.182851	0.953251	-0.366981	0.0445987	0.0168199	0.152256	-0.26307	0	0	-0.357881	-0.09539	-0.0779434	0.156168	-0.219186	0	0	-0.366221	0.142542	-0.0717039	0.00345341	-0.438973	0.413869	0.920397	1.5708	0	0	0.0964176	-0.281387	0.442377	0.716677	1.5708	0	0
0.13	3.01789	1.27871	-1.34761	0.688861	-0.182626	0.953464	-0.373211	0.0428874	0.0143634	0.150415	-0.265373	0	0	-0.311436	-0.121899	-0.195196	0.285264	-0.188992	0	0	-0.371007	0.142185	-0.0709823	0.00252624	-0.4407	0.412487	0.923041	1.5708	0	0	0.095539	-0.280819	0.440359	0.718722	1.5708	0	0
0.14	3.01822	1.27942	-1.34806	0.688932	-0.182537	0.953425	-0.372259	0.0427689	0.0147408	0.151179	-0.264995	0	0	-0.311642	-0.121457	-0.19448	0.283187	-0.18743	0	0	-0.3704	0.141992	-0.0709594	0.00227682	-0.440464	0.411593	0.922812	1.5708	0	0	0.0956898	-0.280672	0.440124	0.71806	1.5708	0	0
0.15	3.01992	1.27938	-1.34963	0.688994	-0.182495	0.953462	-0.372256	0.0423277	0.0146056	0.151625	-0.264563	0	0	-0.313227	-0.120407	-0.191829	0.279491	-0.1874	0	0	-0.37079	0.141556	-0.0709732	0.00196771	-0.440028	0.410109	0.922776	1.5708	0	0	0.0960699	-0.280721	0.440323	0.717781	1.5708	0	0
0.16	3.02177	1.27862	-1.35132	0.689035	-0.182503	0.953556	-0.373038	0.0420398	0.0144394	0.151997	-0.264355	0	0	-0.315552	-0.119455	-0.188945	0.275897	-0.188364	0	0	-0.372114	0.141246	-0.0708189	0.0017253	-0.439713	0.408531	0.923028	1.5708	0	0	0.0966518	-0.280879	0.440697	0.717857	1.5708	0	0
0.17	3.0215	1.27932	-1.35103	0.689045	-0.182315	0.953521	-0.372485	0.0419685	0.0142002	0.152	-0.264292	0	0	-0.316164	-0.118962	-0.187132	0.273143	-0.189188	0	0	-0.371755	0.14136	-0.0710492	0.00127468	-0.439616	0.407387	0.923368	1.5708	0	0	0.0962048	-0.280872	0.440273	0.718108	1.5708	0	0
0.18	3.021	1.28025	-1.35059	0.689077	-0.182123	0.953462	-0.371651	0.0419835	0.0140735	0.152127	-0.264137	0	0	-0.316627	-0.1184	-0.184961	0.27004	-0.189936	0	0	-0.371163	0.141508	-0.0712328	0.000819047	-0.439462	0.406241	0.923763	1.5708	0	0	0.0956868	-0.280661	0.439469	0.718185	1.5708	0	0
0.19	3.02111	1.28119	-1.35076	0.689127	-0.181957	0.953417	-0.370758	0.0417343	0.0139719	0.15234	-0.263906	0	0	-0.317388	-0.117457	-0.182063	0.26608	-0.190834	0	0	-0.370715	0.141392	-0.0713625	0.000343237	-0.438923	0.404566	0.923988	1.5708	0	0	0.0951568	-0.280546	0.43869	0.718513	1.5708	0	0
0.2	3.02144	1.28182	-1.35109	0.689183	-0.181816	0.953413	-0.370138	0.041502	0.0137602	0.152356	-0.263855	0	0	-0.318519	-0.116468	-0.178881	0.261943	-0.19182	0	0	-0.370591	0.141327	-0.0714384	-0.000206831	-0.438435	0.402824	0.924369	1.5708	0	0	0.0947116	-0.280736	0.438798	0.718946	1.5708	0	0
0.21	3.02135	1.28232	-1.35107	0.689248	-0.181678	0.953446	-0.36965	0.041605	0.0139568	0.152112	-0.264002	0	0	-0.319895	-0.115611	-0.175521	0.257605	-0.193151	0	0	-0.370722	0.141298	-0.0712339	-0.00103484	-0.437871	0.400583	0.924965	1.5708	0	0	0.0945302	-0.280949	0.439221	0.71943	1.5708	0	0
0.22	3.02157	1.28293	-1.35134	0.689313	-0.181547	0.953444	-0.369192	0.0415657	0.013912	0.151964	-0.263989	0	0	-0.321253	-0.114619	-0.171937	0.253106	-0.194731	0	0	-0.370714	0.14123	-0.0710203	-0.00196151	-0.437333	0.398237	0.925794	1.5708	0	0	0.0945032	-0.281114	0.439712	0.719636	1.5708	0	0
0.23	3.02291	1.28363	-1.35267	0.689379	-0.181432	0.953415	-0.36866	0.0409834	0.0135154	0.152358	-0.263815	0	0	-0.322615	-0.113226	-0.167962	0.248444	-0.196318	0	0	-0.370676	0.140816	-0.0707944	-0.00291567	-0.436809	0.395947	0.926762	1.5708	0	0	0.0946022	-0.281406	0.440523	0.720044	1.5708	0	0
0.24	3.02439	1.2839	-1.35409	0.689443	-0.181352	0.953444	-0.368452	0.0406007	0.0134685	0.152698	-0.263628	0	0	-0.324508	-0.111822	-0.163541	0.243407	-0.197863	0	0	-0.371237	0.140466	-0.0705169	-0.00372113	-0.436318	0.393731	0.927822	1.5708	0	0	0.094922	-0.281753	0.441578	0.720571	1.5708	0	0
0.25	3.02574	1.2842	-1.35525	0.689533	-0.181259	0.953514	-0.368258	0.0404474	0.0136696	0.152736	-0.263556	0	0	-0.326242	-0.110576	-0.159399	0.238461	-0.199272	0	0	-0.372254	0.140113	-0.0696885	-0.00515019	-0.435707	0.390326	0.929269	1.5708	0	0	0.0955947	-0.282057	0.442702	0.721329	1.5708	0	0
0.26	3.02787	1.28458	-1.35723	0.68965	-0.181157	0.953571	-0.367999	0.0399048	0.0131931	0.153171	-0.263314	0	0	-0.32856	-0.108874	-0.153903	0.231995	-0.201298	0	0	-0.3734	0.139461	-0.0683089	-0.00738918	-0.43489	0.385323	0.931275	1.5708	0	0	0.096748	-0.282267	0.444133	0.72193	1.5708	0	0
